<svg width="12" height="12" viewBox="0 0 12 12" fill="none" xmlns="http://www.w3.org/2000/svg">
<g opacity="0.5">
<path d="M10.2676 6.40594H9.3396C9.43419 6.66493 9.48587 6.94442 9.48587 7.23573V10.7432C9.48587 10.8646 9.46473 10.9812 9.42627 11.0896H10.9605C11.5336 11.0896 11.9999 10.6233 11.9999 10.0502V8.13819C11.9999 7.18304 11.2228 6.40594 10.2676 6.40594Z" fill="black"/>
<path d="M2.51403 7.23573C2.51403 6.9444 2.56571 6.66493 2.6603 6.40594H1.73227C0.777095 6.40594 0 7.18304 0 8.13821V10.0503C0 10.6234 0.466243 11.0896 1.03936 11.0896H2.57363C2.53517 10.9812 2.51403 10.8646 2.51403 10.7432V7.23573Z" fill="black"/>
<path d="M7.06079 5.50348H4.93918C3.984 5.50348 3.20691 6.28057 3.20691 7.23575V10.7432C3.20691 10.9345 3.36202 11.0896 3.55336 11.0896H8.4466C8.63795 11.0896 8.79305 10.9345 8.79305 10.7432V7.23575C8.79305 6.28057 8.01596 5.50348 7.06079 5.50348Z" fill="black"/>
<path d="M5.99989 0.910339C4.85117 0.910339 3.91663 1.84489 3.91663 2.99363C3.91663 3.77281 4.34668 4.45332 4.98179 4.81061C5.28303 4.98006 5.63033 5.0769 5.99989 5.0769C6.36946 5.0769 6.71675 4.98006 7.018 4.81061C7.65313 4.45332 8.08316 3.77279 8.08316 2.99363C8.08316 1.84491 7.14861 0.910339 5.99989 0.910339Z" fill="black"/>
<path d="M2.34195 2.85205C1.48284 2.85205 0.783936 3.55096 0.783936 4.41006C0.783936 5.26916 1.48284 5.96807 2.34195 5.96807C2.55987 5.96807 2.76739 5.92293 2.95589 5.84179C3.28182 5.70147 3.55055 5.45308 3.71684 5.14195C3.83356 4.92358 3.89996 4.67446 3.89996 4.41006C3.89996 3.55098 3.20105 2.85205 2.34195 2.85205Z" fill="black"/>
<path d="M9.65811 2.85205C8.79901 2.85205 8.1001 3.55096 8.1001 4.41006C8.1001 4.67448 8.1665 4.9236 8.28322 5.14195C8.44951 5.4531 8.71824 5.70149 9.04416 5.84179C9.23267 5.92293 9.44019 5.96807 9.65811 5.96807C10.5172 5.96807 11.2161 5.26916 11.2161 4.41006C11.2161 3.55096 10.5172 2.85205 9.65811 2.85205Z" fill="black"/>
</g>
</svg>
